<?xml version="1.0" encoding="UTF-8"?>
<svg width="378px" height="413px" viewBox="0 0 378 413" version="1.1" xmlns="http://www.w3.org/2000/svg" xmlns:xlink="http://www.w3.org/1999/xlink">
    <title>quote</title>
    <g id="landing_page_template" stroke="none" stroke-width="1" fill="none" fill-rule="evenodd">
        <g id="Orange-landing-page" transform="translate(-120.000000, -2388.000000)" fill="#FDE8E1">
            <g id="Testimonials-section" transform="translate(120.000000, 2358.000000)">
                <g id="quote" transform="translate(0.000000, 30.000000)">
                    <path d="M20,0 L145,0 C156.045695,-2.02906125e-15 165,8.954305 165,20 L165,188.900563 C165,193.267564 163.570673,197.514552 160.930302,200.992935 L35.9303023,365.665981 C29.2518695,374.464044 16.7056907,376.182344 7.90762767,369.503911 C2.92587327,365.722362 5.40566529e-14,359.828047 0,353.573609 L0,20 C-1.3527075e-15,8.954305 8.954305,2.02906125e-15 20,0 Z" id="quote-left"></path>
                    <path d="M233,0 L358,0 C369.045695,-2.02906125e-15 378,8.954305 378,20 L378,188.900563 C378,193.267564 376.570673,197.514552 373.930302,200.992935 L248.930302,365.665981 C242.251869,374.464044 229.705691,376.182344 220.907628,369.503911 C215.925873,365.722362 213,359.828047 213,353.573609 L213,20 C213,8.954305 221.954305,2.02906125e-15 233,0 Z" id="quote-right"></path>
                </g>
            </g>
        </g>
    </g>
</svg>